<svg xmlns="http://www.w3.org/2000/svg" viewBox="24 6 1244 724" width="1244" height="724">
  <defs>
    <linearGradient id="chatC" gradientUnits="userSpaceOnUse" x1="0" y1="7200" x2="0" y2="220">
      <stop offset="0" stop-color="#f9b21a"/>
      <stop offset="0.55" stop-color="#f4922b"/>
      <stop offset="1" stop-color="#ef7228"/>
    </linearGradient>
    <style>
      .txt { fill: #2b2b2b; }
      @media (prefers-color-scheme: dark) {
        .txt { fill: #ededed; }
      }
    </style>
  </defs>
  <g transform="translate(0,740) scale(0.1,-0.1)">
    <g fill="url(#chatC)" stroke="none">
<path d="M1913 7199 c-381 -35 -748 -210 -1028 -493 -297 -297 -459 -649 -494
-1069 -15 -172 -15 -2628 -1 -2787 53 -579 388 -1102 871 -1359 344 -183 506
-211 1235 -211 277 0 513 -4 526 -9 13 -5 66 -46 118 -91 123 -107 305 -262
401 -342 42 -34 127 -108 190 -163 63 -55 152 -132 199 -170 46 -39 130 -110
185 -159 153 -135 236 -164 335 -114 105 53 110 82 110 643 0 441 1 455 20
465 10 6 59 24 107 41 619 218 1072 840 1100 1514 5 112 3 132 -10 144 -12 9
-63 13 -192 14 -208 2 -205 4 -205 -104 0 -220 -102 -530 -234 -713 -202 -280
-429 -433 -756 -513 -220 -53 -241 -90 -239 -423 2 -350 0 -420 -13 -420 -7 0
-65 44 -129 98 -64 53 -192 160 -284 237 -93 77 -247 207 -344 289 -97 81
-192 156 -211 165 -31 14 -102 16 -615 18 -636 2 -692 6 -864 63 -452 150
-763 497 -874 975 -20 88 -21 114 -24 1444 -4 1457 -4 1466 48 1669 105 417
433 757 864 895 163 53 136 52 1385 52 1302 0 1203 5 1424 -72 503 -175 824
-606 862 -1158 4 -55 11 -106 17 -112 16 -21 370 -18 387 2 17 20 8 234 -15
357 -119 655 -573 1164 -1200 1343 -216 62 -139 58 -1405 61 -635 1 -1196 -2
-1247 -7z"/>
<path d="M2013 6385 c-384 -70 -678 -331 -797 -710 -40 -128 -39 -112 -38
-1425 0 -1418 -3 -1342 78 -1545 128 -321 469 -581 801 -610 95 -9 1899 -12
2018 -4 458 31 832 372 911 829 22 132 26 442 6 462 -16 16 -359 24 -382 9
-12 -8 -16 -49 -21 -218 -5 -177 -9 -217 -27 -266 -72 -198 -192 -317 -386
-382 -79 -27 -79 -27 -1087 -26 -745 0 -1020 3 -1056 12 -214 53 -400 252
-443 474 -8 44 -10 398 -8 1290 3 1230 3 1230 25 1296 62 182 237 346 418 394
89 23 2031 23 2120 0 181 -47 358 -220 422 -412 12 -37 16 -97 18 -256 2 -145
6 -212 14 -220 17 -17 375 -17 392 0 23 23 17 402 -8 513 -95 425 -391 714
-813 794 -112 22 -2040 22 -2157 1z"/>
<path d="M2470 5590 c-224 -31 -406 -194 -488 -435 -27 -80 -27 -80 -27 -910
0 -830 0 -830 24 -905 76 -243 242 -394 479 -435 123 -22 1174 -22 1277 0 231
48 406 218 465 452 25 98 29 387 6 419 -13 18 -28 19 -190 19 -130 0 -178 -3
-188 -13 -9 -9 -15 -60 -18 -170 -6 -173 -19 -211 -89 -261 -70 -50 -77 -51
-635 -51 -575 0 -575 0 -642 62 -79 73 -75 26 -72 899 3 776 3 776 33 824 58
94 30 90 658 93 653 3 657 2 716 -112 26 -51 27 -56 30 -308 1 -67 11 -70 212
-66 129 2 182 7 191 16 25 25 18 332 -10 422 -73 233 -197 370 -396 438 -81
27 -81 27 -681 28 -330 1 -625 -2 -655 -6z"/>
<path d="M3056 4716 c-262 -98 -198 -486 81 -486 262 1 343 351 109 472 -51
26 -139 33 -190 14z"/>
    </g>
    <g class="txt" stroke="none">
<path d="M5958 4884 c-143 -34 -294 -148 -365 -274 -129 -226 -122 -574 15
-772 162 -235 508 -314 852 -194 41 15 78 30 83 35 12 12 -62 244 -76 237
-186 -82 -325 -96 -461 -46 -109 41 -184 149 -207 300 -28 180 24 336 139 420
105 78 308 84 457 14 27 -13 53 -20 56 -16 4 4 24 54 45 111 44 119 46 114
-55 152 -131 49 -355 65 -483 33z"/>
<path d="M6730 4245 l0 -635 145 0 145 0 0 269 0 270 233 3 c127 2 235 2 240
0 4 -2 7 -124 7 -273 l0 -269 140 0 140 0 0 635 0 635 -140 0 -140 0 0 -245 0
-245 -240 0 -240 0 0 245 0 245 -145 0 -145 0 0 -635z"/>
<path d="M8406 4813 c-184 -428 -330 -794 -430 -1075 l-45 -128 148 0 148 0
48 140 47 140 250 -2 250 -3 48 -135 47 -135 156 -3 157 -3 -29 78 c-128 346
-287 745 -430 1073 l-50 115 -143 3 -143 2 -29 -67z m260 -475 l82 -218 -174
0 -173 0 34 93 c32 89 115 312 131 351 6 15 9 16 12 6 3 -8 42 -113 88 -232z"/>
<path d="M9140 4760 l0 -120 185 0 185 0 0 -515 0 -515 145 0 145 0 0 515 0
515 185 0 185 0 0 120 0 120 -515 0 -515 0 0 -120z"/>
<path d="M10280 4760 l0 -120 190 0 190 0 0 -515 0 -516 143 3 142 3 3 513 2
512 185 0 185 0 0 120 0 120 -520 0 -520 0 0 -120z"/>
<path d="M11410 4868 c0 -24 254 -485 370 -671 l70 -112 0 -237 0 -238 145 0
145 0 0 246 0 247 68 111 c118 191 362 636 362 659 0 4 -69 7 -152 7 l-153 -1
-129 -260 c-71 -143 -134 -258 -140 -256 -6 1 -69 118 -141 260 l-130 257
-157 0 c-113 0 -158 -3 -158 -12z"/>
<path d="M7088 3213 l-28 -4 0 -319 c0 -368 -14 -329 126 -337 102 -6 147 4
195 44 121 102 90 358 -49 404 -50 16 -124 14 -161 -6 l-31 -16 0 121 c0 90
-3 120 -12 119 -7 -1 -25 -4 -40 -6z m223 -289 c39 -20 59 -68 59 -139 0 -110
-49 -165 -147 -165 -86 0 -83 -6 -83 152 l0 139 33 14 c43 19 101 19 138 -1z"/>
<path d="M9288 3213 c-17 -4 -18 -28 -18 -329 l0 -324 40 0 40 0 0 107 0 107
56 -54 c30 -30 73 -79 96 -107 39 -51 42 -53 90 -53 l49 0 -33 47 c-18 26 -65
81 -105 123 l-72 76 94 94 c52 52 95 98 95 102 0 5 -21 8 -47 8 l-48 0 -85
-98 -85 -97 -3 203 c-3 223 1 212 -64 195z"/>
<path d="M9056 3175 c-19 -20 -21 -45 -3 -67 23 -31 81 -23 90 11 13 51 -51
92 -87 56z"/>
<path d="M8223 3153 l-33 -4 0 -294 0 -293 76 -7 c137 -13 250 6 305 52 83 70
76 197 -14 249 l-37 20 30 22 c96 71 42 223 -90 251 -49 10 -168 12 -237 4z
m218 -74 c45 -15 69 -44 69 -84 0 -67 -52 -94 -177 -95 l-63 0 0 88 c0 49 3
92 7 95 10 11 127 8 164 -4z m44 -261 c47 -21 67 -82 44 -132 -21 -45 -123
-74 -214 -60 l-45 6 0 99 0 99 95 0 c52 0 106 -5 120 -12z"/>
<path d="M10111 3129 l-23 -9 4 -233 c5 -258 12 -293 67 -321 36 -19 134 -20
172 -3 23 11 25 15 17 45 -7 28 -11 31 -28 22 -33 -17 -98 -12 -120 10 -18 18
-20 33 -20 160 l0 140 81 0 80 0 -3 33 -3 32 -77 3 -78 3 0 64 c0 71 -9 78
-69 54z"/>
<path d="M9793 3008 c-55 -12 -103 -65 -103 -114 0 -66 23 -91 125 -139 105
-48 126 -76 89 -116 -17 -19 -27 -20 -94 -16 -41 3 -84 7 -94 9 -15 2 -21 -5
-27 -29 -6 -31 -5 -33 30 -43 52 -14 166 -12 205 4 54 22 79 63 73 119 -5 62
-25 82 -122 127 -92 42 -110 59 -101 94 9 37 66 52 136 37 29 -6 54 -10 55 -9
1 2 5 17 8 35 l6 31 -63 11 c-70 12 -66 12 -123 -1z"/>
<path d="M10568 3010 c-100 -18 -162 -106 -162 -230 0 -105 36 -170 116 -211
42 -21 148 -26 210 -9 35 10 37 13 31 43 -8 41 -6 39 -37 27 -15 -5 -53 -10
-84 -10 -70 0 -117 26 -138 75 -27 66 -31 65 141 65 l155 0 0 24 c0 158 -95
251 -232 226z m110 -93 c12 -13 25 -40 29 -60 l6 -37 -106 0 c-61 0 -108 4
-112 10 -12 20 29 85 65 103 42 22 86 16 118 -16z"/>
<path d="M7510 2997 c0 -35 58 -189 145 -385 25 -57 27 -65 14 -89 -21 -40
-57 -58 -114 -58 -49 0 -50 -1 -53 -31 -3 -30 -1 -32 38 -38 92 -15 162 32
211 139 32 72 149 429 149 457 0 16 -6 19 -37 16 l-38 -3 -49 -172 c-27 -95
-52 -173 -55 -173 -8 0 -32 61 -87 220 l-43 125 -40 3 c-31 2 -41 -1 -41 -11z"/>
<path d="M8768 2998 l-38 -10 0 -217 0 -218 38 2 37 3 3 192 2 192 81 -4 c76
-3 80 -2 85 19 12 47 1 53 -88 52 -46 -1 -100 -6 -120 -11z"/>
<path d="M9052 2784 l3 -227 38 -1 37 -1 0 218 c0 119 1 220 3 225 1 4 -17 8
-41 10 l-42 3 2 -227z"/>
<path d="M10937 2998 l-37 -10 2 -215 3 -215 37 -4 38 -3 2 192 3 192 80 1 80
2 6 30 c4 22 2 32 -8 36 -23 9 -165 5 -206 -6z"/>
    </g>
  </g>
</svg>
